<svg version="1" xmlns="http://www.w3.org/2000/svg" width="1869.333" height="1869.333" viewBox="0 0 1402.000000 1402.000000"><path d="M405 257.8c0 .5 1.8 2.4 4 4.2 2.1 1.7 5 4.2 6.3 5.3 3.2 2.9 7.8 7 16.2 14.2 3.9 3.3 8.3 7.2 10 8.7 3.3 3 5.5 4.9 13.4 11.6 11.4 10 21.1 18.4 22.5 19.7.6.6 11.2 9.8 23.6 20.5 12.4 10.6 24.5 21.2 27 23.4 2.5 2.3 7 6.2 10 8.8 8.2 6.9 10.2 8.6 13.5 11.6 1.7 1.5 6.2 5.4 10 8.7 3.9 3.3 7.2 6.2 7.5 6.5.6.6 13.6 11.9 17.4 15.1 1.5 1.3 3.8 3.3 5 4.4 1.2 1.1 4.8 4.2 8.1 7 3.2 2.7 6.3 5.5 6.9 6 .6.6 4.2 3.7 8.1 7 3.8 3.3 7.6 6.7 8.5 7.5.9.8 4.1 3.6 7.1 6.2 6.1 5.2 9.1 7.8 13.4 11.6 4.2 3.8 23.4 20.3 26.9 23.3 1.6 1.3 3.4 2.9 4 3.5.6.6 5.2 4.5 10.1 8.8 13.4 11.7 20.5 17.9 22.9 19.9 1.2 1.1 4.5 4 7.5 6.5 10.7 9.3 21 18.3 22.5 19.7.6.5 4 3.5 7.6 6.5 7.4 6.3 12.7 10.8 15 13 .8.8 4.7 4.2 8.5 7.5 3.9 3.3 7.2 6.2 7.5 6.5.3.3 3.7 3.2 7.5 6.5 3.9 3.3 7.2 6.2 7.5 6.5.3.3 3.4 3 6.9 6 3.6 3 7.2 6.2 8.1 7 2.5 2.3 7.4 6.6 19.5 17 6.1 5.2 12.6 10.9 14.5 12.7 1.9 1.7 4.7 4.1 6.2 5.2l2.6 2.1 256.6-.2 256.5-.3-12.1-12.5c-6.6-6.9-22-22.8-34.2-35.4-12.1-12.6-25-25.9-28.6-29.6-3.6-3.7-12.6-13-20-20.7-7.4-7.7-23.4-24.3-35.5-36.8-12.1-12.6-24.7-25.6-28-29-5.9-6.1-52.8-54.5-59.5-61.5-1.9-2-13.8-14.4-26.5-27.5-62.1-64.3-57.2-59.5-61.3-59.7-5.2-.2-14.9-1.2-22.2-2.3-2.8-.4-9.9-1.2-17.5-2-2.7-.2-9-.9-14-1.5-4.9-.6-11-1.3-13.5-1.6-2.5-.2-5.8-.7-7.5-.9-1.6-.3-6.1-.7-10-1-3.8-.3-8.1-.8-9.5-1-1.4-.2-5-.7-8-1-3-.3-8.9-1-13-1.5-10.9-1.3-19.1-2.2-22.5-2.5-1.6-.1-5.2-.5-8-.9-2.7-.3-7-.8-9.5-1.1-2.5-.3-6.5-.7-9-1-2.5-.3-6.4-.7-8.7-1-8.9-1-13-1.5-17.8-2-5-.5-11.3-1.3-17-2-1.6-.2-6.1-.7-10-1-3.8-.4-7.7-.8-8.5-1-.8-.2-4.9-.6-9-1s-8.2-.8-9-1c-.8-.1-4.6-.6-8.3-1-3.7-.3-7.6-.8-8.5-1-.9-.1-5.1-.6-9.2-1s-8.2-.9-9.1-1c-.8-.2-4.9-.6-9-1-4.1-.3-8.1-.8-8.9-1-.8-.2-4.4-.7-8-1-3.6-.3-7.8-.8-9.5-1-5-.6-12.7-1.5-18-2-6.6-.7-14.4-1.6-17.5-2-2.5-.4-8.5-1.1-18.5-2.1-2.7-.2-6.8-.7-9-1-8.5-1-11.2-1.4-16-1.9-10.9-1.1-16.1-1.7-18.5-2-1.4-.2-5.2-.7-8.5-1-3.3-.3-7.6-.8-9.5-1-1.9-.3-5.7-.7-8.5-1-2.7-.3-6.6-.8-8.5-1-1.9-.2-6-.7-9-1-3-.3-9.3-1-14-1.5-4.7-.6-10.7-1.3-13.5-1.6-2.7-.2-6.1-.7-7.5-.9-1.4-.2-5-.6-8-.9-3-.3-9.5-1-14.5-1.6-4.9-.6-11-1.2-13.5-1.5-2.5-.3-6.5-.8-9-1-2.5-.3-6.5-.8-9-1.1-2.5-.2-6.3-.7-8.5-.9-2.2-.3-6.2-.7-9-1-2.7-.3-6.3-.7-8-1-1.6-.2-5.9-.7-9.5-1-3.6-.3-7.6-.8-9-1-1.4-.2-4.7-.6-7.5-.9-2.7-.3-8.8-1-13.5-1.6-4.7-.5-11.2-1.2-14.5-1.5-3.3-.3-7.1-.8-8.5-1-1.4-.2-5.6-.7-9.5-1.1-3.8-.3-7.3-.8-7.7-1.1-.5-.2-.8 0-.8.5zM384.3 343.4c-11.6 9.6-22.1 18.3-23.4 19.4-1.3 1.1-11.2 9.3-21.9 18.2-10.7 8.9-21.5 17.9-24 20-4.9 4-40.6 33.7-46.1 38.3-1.9 1.6-5.2 4.3-7.3 6-2.2 1.8-7.4 6.1-11.6 9.7-4.2 3.6-9.6 8.1-12 10-3.9 3.2-10.4 8.5-23 19.1-15.4 12.8-26.3 21.9-30.1 25-3.3 2.7-51.4 42.7-69.4 57.7-1.1.9-5.8 4.8-10.5 8.7-4.7 3.8-9 7.4-9.6 8-1.4 1.2-6.9 5.8-45.6 38C33.4 635.1 20 646.4 20 646.6c0 .2 9.6.4 21.3.4l21.2-.1L77 634.8c8-6.6 16.5-13.7 18.9-15.7 2.4-2 4.9-4.1 5.5-4.6.6-.6 3.2-2.7 5.8-4.8 2.6-2.1 5.3-4.3 6-5 .7-.7 4.7-3.9 8.8-7.2 4.1-3.3 8.1-6.7 9-7.5.9-.8 3.8-3.3 6.5-5.5 10-8.2 66.1-54.8 68.5-56.9 3-2.5 19.8-16.5 40.5-33.6 8.3-6.8 15.2-12.7 15.5-13 .3-.3 3-2.5 6-5s6.4-5.3 7.5-6.2c1.1-.9 5.4-4.5 9.5-7.9 4.1-3.4 9.5-7.9 12-10 3.8-3.2 28-23.3 41.5-34.5 2.2-1.8 14.1-11.7 26.5-21.9 12.4-10.3 24.5-20.4 26.9-22.4 2.4-2 5.8-4.9 7.5-6.4 5.2-4.7 5.9-4.8 9.2-1.9 1.7 1.5 8.9 7.4 15.9 13.2 7 5.8 13.7 11.3 14.9 12.3 1.1 1 3 2.6 4.1 3.5 1.1 1 5.8 4.9 10.5 8.7 4.7 3.8 9 7.4 9.6 8 .6.5 3 2.6 5.4 4.5 2.4 1.9 4.8 4 5.4 4.5.6.6 3.6 3 6.6 5.5 3 2.5 5.7 4.7 6 5 .3.3 4.3 3.7 9 7.5 4.7 3.9 9.6 8 11 9.2 1.4 1.1 7.2 6 13 10.8 5.8 4.8 11.4 9.4 12.5 10.4 1.1.9 4.9 4 8.5 7 3.6 2.9 8.5 7 11 9.1 7.8 6.5 60.3 50.1 64.9 53.9 2.4 2 4.9 4.1 5.5 4.6.6.6 6.3 5.3 12.6 10.5 12.7 10.5 15.7 13 17.4 14.5 1 .9 21 17.5 25.9 21.5 1 .8 2.8 2.3 4 3.4 1.2 1 6.9 5.7 12.7 10.4 5.8 4.8 10.7 8.9 11 9.2.3.3 3 2.5 6 5s5.7 4.7 6 5c.3.3 3 2.5 6 5 8.2 6.7 9.5 7.8 21.8 18.1 2.1 1.8 3.8 1.9 23.7 1.7l21.5-.3-9.1-7.5c-5.1-4.1-10-8.2-11.1-9.2-1-.9-3.7-3.1-6-5-2.3-1.8-4.6-3.8-5.2-4.3-.6-.6-7.4-6.2-15.1-12.4-7.7-6.3-14.4-11.9-15-12.5-.5-.6-3.2-2.9-6-5.1-2.7-2.2-5.5-4.4-6.1-5-.6-.6-3.1-2.7-5.4-4.6-2.3-1.8-4.7-3.9-5.4-4.4-.6-.6-3.2-2.7-5.8-4.8-2.6-2.1-5.3-4.3-6-5-.7-.7-3.5-3-6.3-5.2-2.7-2.2-5.7-4.7-6.5-5.5-.9-.8-3.3-2.9-5.4-4.5-2.1-1.7-4.4-3.5-5-4-.6-.6-6.5-5.5-13.1-11-6.6-5.4-12.5-10.4-13.1-11-.7-.5-3.1-2.6-5.5-4.5s-8.7-7.1-13.9-11.5c-5.3-4.4-11.6-9.7-14.1-11.7-2.4-2-15.9-13.2-29.9-24.9-32-26.5-32.5-27-44-36.5-5.2-4.3-9.7-8.1-10-8.4-.3-.3-5.4-4.6-11.5-9.5-6-4.9-11.2-9.2-11.5-9.5-.3-.3-11.1-9.3-24-20s-23.7-19.7-24-20c-.3-.3-3-2.5-6-5-7.2-5.9-10-8.3-11.4-9.5-.6-.6-4.7-4-9.1-7.6-7.9-6.4-10-8.1-17.9-14.9-2.3-1.9-4.8-4-5.7-4.7-1.4-1.2-4.3.9-22.6 16.1z"/><path d="M401.3 399.2c-2.1 1.9-7.6 6.5-12.3 10.3-4.7 3.8-8.7 7.2-9 7.5-.3.4-3 2.6-6.1 5.1-4.6 3.6-20.9 17.1-32.9 27.3-1.4 1.1-5 4.1-8 6.6s-5.7 4.7-6 5c-.3.3-5.7 4.8-12 10s-12.4 10.2-13.5 11.2c-1.1.9-6.5 5.4-12 10-5.5 4.5-10.5 8.7-11.1 9.3-.6.5-2.8 2.3-4.9 4-2.1 1.6-4.3 3.5-4.9 4-.6.6-3.6 3-6.6 5.5-3 2.5-6 4.9-6.6 5.5-.6.5-3 2.6-5.4 4.5-2.4 1.9-5.8 4.7-7.5 6.1-1.6 1.4-4.1 3.5-5.5 4.7-3.1 2.6-33.9 28.2-39.9 33.1-2.4 2-4.9 4.1-5.5 4.6-.6.6-3.3 2.8-6.1 5-2.7 2.2-5.2 4.2-5.5 4.6-.4.4-20.2 16.9-26.5 22-1.1 1-4.1 3.4-6.6 5.5-2.5 2.2-6.7 5.7-9.4 7.9s-8.1 6.7-12 10c-3.9 3.3-9.1 7.6-11.5 9.5-2.3 1.9-5.7 4.7-7.4 6.2l-3.1 2.8h33.7l5.2-4.2c2.8-2.4 5.3-4.5 5.6-4.8.4-.5 16.8-14.1 35.9-29.9 2.4-2 4.9-4.1 5.5-4.6 1-.9 4.5-3.8 14.5-12 1.4-1.1 4.1-3.4 6-5.1 2-1.6 18.2-15.1 36.1-29.9 17.9-14.8 33-27.4 33.6-28 .6-.5 9.6-8 19.9-16.5 10.4-8.5 21-17.3 23.5-19.5 2.5-2.2 6.6-5.6 9-7.5 4.5-3.6 11.1-9.1 12-10 .3-.3 3-2.5 6-5s5.7-4.7 6-5c.3-.3 4.1-3.4 8.5-7 4.4-3.5 8.5-6.9 9.1-7.5 1.3-1.1 5.4-4.6 20.8-17.4l10.9-9 5.6 4.7c3.1 2.6 5.8 4.9 6.1 5.2.3.3 7 5.9 15 12.5s14.7 12.2 15 12.5c.3.3 2.8 2.3 5.5 4.5 2.8 2.1 5.2 4.2 5.5 4.5.3.3 3 2.5 6 5s6.4 5.2 7.5 6.1c3.3 2.7 17.8 14.9 20.5 17.3 1.4 1.1 4.7 3.9 7.5 6.1 2.7 2.2 5.7 4.7 6.6 5.5.9.8 2.5 2.2 3.5 3 3.4 2.7 22.7 18.7 24.8 20.5.6.6 3.6 3 6.6 5.5 3 2.5 6 4.9 6.6 5.5.6.5 3 2.6 5.4 4.5 2.4 1.9 4.8 4 5.4 4.5.6.6 5.4 4.5 10.6 8.8 5.2 4.3 11.5 9.6 14 11.6 5.7 4.8 65 54.1 70.9 59 2.5 2 6.3 5.2 8.6 7.1 11.8 10 8.9 9 27.2 9 9.2 0 16.3-.4 16.3-.9s-.4-1.1-.9-1.3c-1-.3-7.1-5.3-14.2-11.3-2.5-2.2-5.5-4.7-6.5-5.5-3.3-2.7-12.7-10.5-14.4-12-.9-.8-3.7-3.1-6.1-5-2.4-1.9-8.9-7.3-14.4-12-5.6-4.7-12.1-10.1-14.5-12-2.4-1.9-4.8-4-5.4-4.5-.6-.6-4.9-4.2-9.6-8-4.7-3.8-9-7.4-9.6-8-.6-.5-3.1-2.6-5.5-4.6-2.4-2-6.2-5.2-8.5-7-2.2-1.9-5.9-4.9-8.2-6.7-2.2-1.9-5.1-4.3-6.4-5.4-1.3-1.1-12.4-10.4-24.8-20.7-38.9-32.2-59.4-49.2-62-51.5-1.4-1.1-9-7.5-17-14-8-6.6-14.7-12.2-15-12.6-.3-.3-5.7-4.8-12-10s-12-9.9-12.7-10.5c-.6-.5-2.8-2.4-5-4.1-2.1-1.8-7.4-6.2-11.8-9.9s-9.1-7.6-10.5-8.7c-1.4-1.2-3.2-2.7-4.2-3.5-1.4-1.3-2.1-1.1-5.5 1.9z"/><path d="M402 441.2c-2.7 2.2-10 8.3-14 11.8-1.4 1.2-4.7 4-7.4 6.3s-5.4 4.7-6 5.2c-.6.6-3.8 3.3-7.1 6-3.3 2.8-6.5 5.5-7.1 6.1-.6.5-3.1 2.6-5.4 4.5-2.3 1.8-5 4.1-5.9 5-.9.8-9 7.8-18.1 15.5-9.1 7.6-17 14.3-17.6 14.9-.6.5-3.3 2.8-5.9 5-2.7 2.2-5.3 4.5-5.9 5-.6.6-4 3.5-7.6 6.4-3.6 3-6.7 5.7-7 6-.3.3-3.2 2.8-6.5 5.6-3.3 2.7-6.2 5.2-6.5 5.5-.3.3-4.8 4.1-10 8.5s-9.7 8.2-10 8.5c-.3.3-4.5 3.9-9.5 8-4.9 4.1-9.2 7.7-9.5 8-.3.3-3.4 3-7 6s-7.8 6.7-9.5 8.1c-1.6 1.5-15.5 13.3-30.8 26.3L159.9 647h22.4l5.6-4.7c3.1-2.6 6.1-5.2 6.7-5.8.6-.5 3.5-3 6.4-5.5 11.4-9.6 27.6-23.4 30.5-25.9 5-4.3 22.6-19.2 29-24.6 3.3-2.7 7.4-6.2 9-7.6 1.7-1.5 17.2-14.7 34.5-29.4s33.8-28.6 36.5-31c2.8-2.4 7-6 9.6-8.2 2.5-2.1 7.1-6.1 10.4-8.8 3.2-2.8 7.9-6.7 10.4-8.9 2.5-2.1 6.9-5.8 9.6-8.1 11.9-10.2 21.1-18 22.6-19.2 1.3-1.1 2-1 4.1.9 1.4 1.3 6.2 5.4 10.8 9.3 4.5 3.8 8.8 7.5 9.4 8 .6.6 3.8 3.3 7.1 6 3.3 2.8 6.2 5.2 6.5 5.5.3.3 3.4 3 7 6s6.7 5.7 7 6c.3.3 3.2 2.8 6.5 5.5 3.3 2.8 6.5 5.4 7.1 6 .6.5 3.5 3 6.4 5.5 3 2.5 7 5.9 9 7.6 1.9 1.7 4.8 4.2 6.4 5.5 1.6 1.3 5 4.2 7.6 6.4 2.5 2.2 6.8 5.9 9.5 8.2 2.8 2.3 6.1 5.1 7.5 6.3 1.4 1.2 3.4 2.9 4.5 3.8 6.8 5.7 22.1 18.8 22.5 19.2.3.3 5.9 5.1 12.5 10.7 6.6 5.5 13.1 11 14.5 12.2 1.4 1.2 3.4 3 4.5 3.9 1.1.9 6.3 5.3 11.5 9.7 5.2 4.4 10.6 9 12 10.1 1.4 1.2 5 4.3 8 6.9 5.6 4.9 6.4 5.5 16.1 13.7l5.6 4.8h22.4l-4.8-4.1c-5.6-4.8-7.5-6.4-16.3-13.9-3.6-3-6.7-5.7-7-6-.3-.3-4.5-3.9-9.5-8-8.3-6.9-13.1-11-15.9-13.5-.6-.6-8.5-7.3-17.6-15-9.1-7.7-17.6-15-19-16.1-1.4-1.2-7.7-6.6-14-11.9-6.3-5.4-12.9-10.9-14.5-12.4-1.7-1.4-5.7-4.9-9-7.6-6-5-10.8-9.2-12.9-11-.6-.6-6.9-6-14.1-12-7.1-6-13.2-11.2-13.5-11.5-.3-.3-4.8-4.1-10-8.5s-9.7-8.2-10-8.5c-.3-.3-3.2-2.8-6.5-5.5-3.3-2.8-6.2-5.2-6.5-5.5-.3-.3-3.2-2.8-6.5-5.5-3.3-2.8-6.5-5.5-7.1-6-.6-.6-3.5-3-6.4-5.5-2.9-2.5-5.8-5-6.4-5.5-1.9-1.7-14-12-15.6-13.2-1.2-.9-2-.7-4 .9zM98.9 684.7c-.6 1.6-10.7 28.4-22.5 59.8-11.8 31.3-22.1 58.6-22.9 60.5-.8 1.9-7.7 20.1-15.4 40.5-7.7 20.3-14.2 37.8-14.6 38.7-.7 1.7.6 1.8 17.8 1.8h18.4l6.8-19.8c3.8-10.8 7.6-21.5 8.5-23.7l1.7-4h39.1c21.5 0 39.3.2 39.5.5.2.3 2.2 5.4 4.2 11.5 2.1 6 5.7 16.4 8.1 23l4.2 12 18.5.3 18.6.2-1.3-3.7c-.8-2.1-3.7-9.9-6.6-17.3-2.8-7.4-6.7-17.8-8.6-23-1.9-5.2-3.9-10.4-4.4-11.5-.5-1.1-4.6-11.9-9-24-4.5-12.1-8.8-23.4-9.5-25-1.1-2.4-17.6-46.1-28-74-1.2-3.3-3.9-10.4-6-15.8l-3.8-9.7H100l-1.1 2.7zm21.4 53.3c5.2 15.2 22.6 65.2 23.4 67 2.2 5.3 3.8 5.1-28.2 5l-29.4-.1 1.1-2.7c.5-1.5 3.4-9.7 6.3-18.2 3-8.5 7.9-22.7 11-31.5 3.2-8.8 6.9-19.5 8.3-23.7 1.4-4.3 2.9-7.4 3.3-7 .3.4 2.2 5.4 4.2 11.2zM232.3 784v102h63.9c50.3 0 63.8-.3 63.9-1.3.6-6 .2-26-.5-26.4-.5-.4-21.3-.6-46.2-.6H268l-.1-2.1c0-1.2-.1-40.7-.1-87.9l-.1-85.7h-35.4v102zM387.9 682.2c-.1.2-.2 46.1-.3 102l-.1 101.8h35.8l-.7-47.3c-.3-25.9-.8-50.1-1-53.7-.2-3.6-.7-15.4-1.1-26.3-.4-10.9-.8-21-1-22.5-.5-4.2.6-4.8 2.2-1.1.8 1.9 1.6 3.8 1.7 4.4.2.5.6 1.7.9 2.5.4.8 4 10.5 8.2 21.5 4.2 11 8.3 21.8 9.2 24 .8 2.2 1.9 4.9 2.3 6 .5 1.1 2.7 6.9 5 13 2.3 6 4.5 11.9 5 13 .5 1.1 3.1 7.8 5.8 15 2.7 7.1 5.3 13.9 5.7 15 .5 1.1.9 2.2 1 2.5.2 1 4.6 12.6 5.4 14.5.5 1.1 2.4 5.9 4.3 10.7l3.3 8.8H504.8l3.7-9.8c2.1-5.3 5.7-14.7 8-20.7 5.1-13 24.5-63.8 28.6-74.5 1.5-4.1 6.6-17.4 11.3-29.5l8.6-22-.5 14c-.3 7.7-.7 18.7-1 24.5-1.4 30.6-1.8 47.9-1.9 81.3l-.1 36.7H597V682l-23.1.2-23.1.3-29.1 77.7c-16 42.7-29.3 77.6-29.4 77.4-.3-.3-21.6-56.5-27.9-73.6-1.9-5.2-4.1-11.1-4.9-13-1.9-4.7-7.6-19.7-17.7-46.8l-8.3-22.2h-22.7c-12.6 0-22.9.1-22.9.2zM686 719.7c-7.9 20.8-15.3 40.5-16.5 43.8-1.3 3.3-8.2 21.7-15.5 41-7.3 19.2-17.2 45.5-22 58.3l-8.8 23.2 18.5-.2 18.5-.3 3.2-9c1.8-5 5.4-15.4 8-23.2 3.3-9.6 5.3-14.2 6.5-14.5.9-.2 18.7-.4 39.6-.3h37.9l2.4 6.5c4.7 12.7 7.1 19.6 10.8 30.2l3.6 10.8h36.9l-.6-2.3c-.4-1.2-1.3-3.6-2-5.2-.7-1.7-3.6-9.1-6.3-16.5-5.6-14.9-29.7-78.8-45.3-120-13.9-36.5-17.3-45.5-20.1-53l-2.4-6.5-16-.3-16.1-.2-14.3 37.7zm47.5 55.3c1.8 5.2 5.2 14.7 7.4 21 2.3 6.3 4.2 11.9 4.4 12.5.1.6-10.1 1.1-29 1.2-16.1.1-29.3-.2-29.3-.6 0-.4 3.6-10.8 7.9-23.1 4.4-12.4 10.5-29.9 13.7-39 3.1-9.1 6.1-17.6 6.6-19 .9-2.2 1.9.2 8 17.5 3.8 11 8.5 24.3 10.3 29.5zM823.9 683.7c-.1 2.2-.1 24.4 0 25.8.1.7 17.9 1 52.1 1 28.6 0 52 .1 52 .2 0 .4-6.3 9.9-10.8 16.3-2.1 3-10.4 15.1-18.5 26.8l-18 26c-1.8 2.6-6.4 9.2-10.2 14.7-3.8 5.5-11 15.9-16 23-10.7 15.4-14.6 21.1-24.2 35.1l-7.3 10.5V886h152v-28.5l-54.5.1c-29.9.1-54.2-.3-53.9-.7.5-.8 19.3-28.2 28.4-41.4 2.3-3.3 9.7-14.1 16.5-24 6.8-9.9 12.8-18.5 13.2-19 .4-.6 2-2.8 3.5-5s11.4-16.7 22.1-32.2c10.7-15.5 19.9-28.8 20.3-29.5.5-.7.9-6.4 1-12.6l.1-11.2h-73.8c-69.7 0-73.9.1-74 1.7zM1039.1 754.2c-15 39.8-28.6 75.7-30.2 79.8-1.6 4.1-6.7 17.5-11.3 29.8l-8.4 22.2 18.5-.2 18.5-.3 3.4-9.5c1.9-5.2 5.5-15.6 8-23s4.8-13.7 5.1-14c.9-.9 77.8-.6 79.1.3.6.5 1.2 1.8 1.2 2.8 0 1.1.5 2.7 1 3.7.9 1.4 12.2 33.2 13.7 38.4.5 1.6 2.3 1.8 18.9 1.8 10.1 0 18.4-.2 18.4-.5 0-.4-9.2-24.8-36.1-95.8-7.6-20.2-13.9-36.9-13.9-37.1 0-.2-.8-2.1-1.7-4.2-.9-2.2-1.8-4.4-1.9-4.9-.3-1.2-10.4-28.1-13.9-37-1.3-3.3-3.9-10.1-5.9-15l-3.5-9-15.9-.3-15.9-.2-27.2 72.2zm59.3 17.4c6.9 19.8 12.6 36.6 12.6 37.2 0 .9-7.6 1.2-29 1.2-17.7 0-29-.4-29-1 0-.5.4-1.9 1-3.2.5-1.3 3.9-10.6 7.4-20.8 8.7-25 19.2-55.1 20.2-57.4.6-1.6 1.1-1.1 2.4 3 1 2.7 7.4 21.1 14.4 41zM1198.5 784v102h35.5v-28.3c.1-15.5.1-48 .1-72.1l-.1-44 3.3 5c3.4 5.1 7.2 11.2 30.9 48.9 7.9 12.6 17.7 28.3 21.8 34.7 4.1 6.5 8 12.6 8.5 13.6.6 1.1 2 3.4 3.3 5.3 1.2 1.9 6.9 10.8 12.6 19.9l10.3 16.5h35.8V682h-35.4l.1 71.6c0 39.3-.2 71.7-.4 71.9-.2.3-7.3-10.6-15.8-24.2-8.5-13.5-17-26.9-18.8-29.7-1.8-2.8-3.5-5.9-3.8-6.9-.4-.9-1-1.7-1.4-1.7-.4 0-1.2-1.1-1.8-2.4-.6-1.3-4-6.9-7.5-12.3s-6.6-10.5-7-11.3c-.4-.8-8.2-13.4-17.5-28l-16.8-26.5-17.9-.3-18-.2v102zM220.6 917.1c-24.8 5-43.1 23.3-50.3 50.4-2.4 9.3-3.1 17.9-2.9 37 .3 17.6.7 22.4 2.5 29.5 7 27.3 24.6 45.9 48.8 51.6 9.9 2.3 28.5 1.5 37.3-1.6 14.3-5.1 23.8-12.6 31.8-24.9 6.9-10.8 10.1-20.3 12.8-38.1.6-4 .5-35.2-.1-39.5-1.6-10.8-4.5-21.5-8.2-29.3-12.8-27.4-41.2-41.3-71.7-35.1zm24.8 18.9c18.3 3.9 31.2 22.7 33.2 48.3 3.8 47.7-6 74.1-30.5 82.2-10.1 3.3-23 2.4-33.3-2.3-12.7-5.9-23.1-24-25.3-44.2-1-8.9-.7-34.2.4-40.6 1.8-9.4 1.8-9.6 3.9-15.1 8.8-23.1 27.6-33.4 51.6-28.3zM378.7 915.6c-.1.1-2.4.5-5.2.8-24 3.1-44.3 21.6-52.3 47.6-3.1 10.2-4.4 21.2-4.4 37.5-.1 20.3 1.4 30 6.6 43.7 7.8 20.8 26.2 36.9 46.6 40.8 6.6 1.2 19 1.4 25.8.4 13.8-2.1 27.7-9.6 35.9-19.5 1.5-1.9 3.5-4.2 4.4-5.1 3.1-3.5 9.2-17.4 11.6-26.7 2.3-8.5 2.6-11.9 2.9-30.1.5-31-3.2-46.8-14.6-63.5-8.8-12.8-26.2-23.3-41.5-25.1-4.9-.6-15.4-1.1-15.8-.8zm17.3 20.5c4.8 1.3 11.8 4.9 15.1 7.7 3.2 2.7 9.6 11.6 11.4 15.8 5.3 12.4 6.8 23.8 6.2 46.5-.2 10.1-.7 19.3-1 20.4-.3 1.1-1 4.1-1.6 6.7-4.2 18.1-16.2 31.1-32.1 34.4-10 2.1-23 .3-31-4.3-5.9-3.4-13.1-11.1-16-17.1-1.2-2.6-2.6-5.4-3-6.3-3.5-6.8-5.6-23.3-5.4-41.9.3-26.3 5.6-42.2 18.2-53.7 9.2-8.5 25.5-11.9 39.2-8.2zM856.7 915.6c-.1.1-3.3.5-7 .8-24.3 2.2-43.7 18.6-51.6 43.6-4 12.8-4.9 21.1-4.6 42.3.3 22.6.4 23.1 3.4 34 2.6 9.4 5.3 15.4 10.2 22.8 4 5.9 16.3 17.9 18.5 17.9.7 0 1.4.4 1.6.8.4 1 11.4 5.8 16.3 7.1 7.2 1.8 9.9 2.1 20.2 2.2 22.9 0 40.9-6 52.8-17.8l5.5-5.5v-30.9l-.1-30.9-4.2-.1c-4.8-.1-53.7-.1-55.2 0-.7.1-1.1 3.6-1.2 8.9v8.9l19.3-.1 19.4-.1v37.6l-2.7 2.6c-10.4 9.8-39.1 12.6-53.9 5.3-13.2-6.5-22.2-19.1-26-36.6-2.2-10.2-2.7-41.2-.7-52.3 4.7-27.5 19.5-41.9 43.2-42.2 20.2-.2 33.4 9.1 38.6 27.3l1.6 5.8H922l-.6-3.3c-5.2-29.4-26.3-46.7-59.3-48.1-2.8-.2-5.2-.2-5.4 0zM1256.5 915.8c-33 3.1-55.7 27.4-60 64.2-.7 6.1-.8 38.1-.1 42 .3 1.4.7 4.3 1.1 6.5.3 2.2.7 4.7 1 5.5.2.8.6 2.6.9 4 3.2 16 17.7 35.2 32.1 42.4 10.1 5 16.9 6.5 30.5 6.5 34.5 0 55.7-17.2 61.9-50.3l.8-4.6h-22.4l-.8 4.2c-.5 2.4-.9 4.5-.9 4.8-.6 3-4.5 11.3-6.7 14.5-3.6 5.2-6.1 7.2-12.8 10.3-7.3 3.3-25 4.1-32.7 1.5-13.6-4.6-23.1-16.2-28-34.3-2.7-9.5-2.7-52.3-.1-62.4 4.5-17.6 14-29.3 28-34.5 8.5-3.1 24.9-2.6 32.7 1 10.4 4.8 16.4 13.2 20 27.9l1.6 6.5 11.1.1 11 .1-1.3-7c-1.8-9.5-2.1-10.1-6.2-18.6-6.3-12.8-18.9-23.4-32.9-27.6-6.9-2.1-20.5-3.4-27.8-2.7zM493.5 917.8l-21.1.2.1 83.3v83.2h22v-73l31.5-.2c17.3-.1 33.1-.2 35-.2l3.6-.1-.1-8.8v-8.7l-25.5-.2c-14-.1-29.8-.2-35.1-.3h-9.5v-57h81.5v-18h-6.2c-3.4 0-17.2-.1-30.7-.3-13.5-.1-34-.1-45.5.1zM645.8 917.8c-1.6.2-2.8.9-2.9 1.5 0 .7-.2 38.2-.2 83.4l-.2 82.3H665l.2-63.9.3-63.9 16 24.4c8.8 13.4 17.6 26.9 19.5 29.9 4 6.2 16.2 24.9 34.9 53.5l12.8 19.5 11.2.3 11.1.3V918l-4-.1h-15.4l-2.4.1v63.6c0 34.9-.2 63.7-.4 64-.3.2-2.9-3.3-5.8-7.8-6.4-10-14.3-22.2-27.6-42.3-5.4-8.3-10.3-15.8-10.9-16.8-.5-1-5-8-10-15.5-4.9-7.5-13.6-20.8-19.3-29.5-9-13.8-10.6-15.7-13-15.8-1.5 0-5.2-.1-8.2-.2-3-.1-6.7-.1-8.2.1zM998.8 917.8l-3.8.3V1085h22V918.2l-7.2-.4c-4-.2-9-.2-11 0zM1048.3 917.8c-1.3.2-2.3.9-2.4 1.5-.1 1.7-.1 161.8 0 163.9.1 1.6 1.3 1.8 11.1 1.8h11V956.5l9.9 15c5.4 8.2 17.1 26.2 26.1 40 9 13.7 20.6 31.5 25.8 39.5 5.3 8 12.4 18.9 15.8 24.2l6.4 9.8h11c6 0 11-.3 11.1-.8.1-1 .1-162.3 0-164.5-.1-1.5-1.3-1.7-10.9-1.7h-10.9l.1 63.6c.1 35-.1 63.8-.3 64-.5.5-19.1-27.3-19.1-28.6 0-.6-.3-1-.8-1-.4 0-1.8-2-3.2-4.5-1.4-2.5-2.8-4.5-3.2-4.5-.5 0-.8-.4-.8-.9s-2.2-4.2-4.8-8.3c-2.7-4-8.4-12.7-12.7-19.3-14-21.5-26.6-40.8-32.6-49.9-3.3-4.9-5.9-9.2-5.9-9.7 0-.8-16.6-1.7-20.7-1.1zM39.9 918.2c-.1.2-.2 37.8-.3 83.5l-.1 83.3h22.2l.1-29.3c0-16 .1-31.3.1-33.8l.1-4.5h38.7l1.5 2.6c.8 1.5 3.9 7.1 6.8 12.6 2.9 5.4 6 11.2 7 12.9 1 1.6 4.1 7.5 7 13 2.9 5.5 7.3 13.7 9.7 18.2l4.5 8.3h11.9c6.5 0 11.9-.3 11.9-.8 0-.4-.8-2.1-1.8-3.7-1-1.7-3.6-6.2-5.7-10-4.8-9-9.3-17.1-11.8-21.5-1.1-1.9-4.4-8-7.5-13.5-9-16.5-10.4-18.9-11.4-20.2-1.4-1.8-.4-2.9 5.6-5.8 6.6-3.2 14.5-10.5 18.4-17 4.7-8 6.5-14.9 6.5-25 0-25.8-13.1-41.6-39.9-48.1-2.8-.7-73.3-1.9-73.5-1.2zm68.5 19.2c9.8 2.3 18.6 10.4 21.2 19.4 1.8 6.1 2 15.3.4 21.1-1.3 5.1-6.4 11.8-11.5 15.2-7.6 5.2-13.4 6.2-35.9 6.3-13.1.1-20.6-.3-20.6-.9-.1-.6-.2-14.9-.3-31.8l-.2-30.9 22 .5c12.1.2 23.3.7 24.9 1.1zM592.2 1001.5v83.5H614v-19.5c.1-10.7.1-23.3.1-28 0-4.7 0-33.5-.1-64V918h-21.8v83.5zM1348 1061.8c-3 1.4-5.5 3.7-6.9 6.4-1.8 3.4-.9 10.2 1.7 13.7 3.9 5.2 14.8 5.7 20 .9 5-4.8 4.5-15-1-19.1-2.8-2.1-11.1-3.2-13.8-1.9z"/></svg>